General
Complete name                    : D:VIDEO_TSVTS_01_1.avi
Format                           : AVI
Format/Info                      : Audio Video Interleave
File size                        : 697 MiB
Duration                         : 1h 48mn
Overall bit rate                 : 896 Kbps
Writing library                  : VirtualDub build 32593/release

Video
Format                           : H.263
Codec ID                         : H263
Duration                         : 1h 48mn
Bit rate                         : 798 Kbps
Width                            : 640 pixels
Height                           : 272 pixels
Display aspect ratio             : 2.35:1
Frame rate                       : 29.970 fps
Resolution                       : 24 bits
Bits/(Pixel*Frame)               : 0.153
Stream size                      : 621 MiB (89%)

Audio
ID                               : 1
Format                           : MPEG Audio
Format version                   : Version 1
Format profile                   : Layer 3
Format_Settings_Mode             : Joint stereo / MS Stereo
Codec ID                         : 55
Codec ID/Hint                    : MP3
Duration                         : 1h 48mn
Bit rate mode                    : Variable
Bit rate                         : 86.7 Kbps
Nominal bit rate                 : 96.0 Kbps
Channel(s)                       : 2 channels
Sampling rate                    : 32.0 KHz
Resolution                       : 16 bits
Stream size                      : 67.4 MiB (10%)
Alignment                        : Aligned on interleaves
Interleave, duration             : 36 ms (1.08 video frame)
Interleave, preload duration     : 228 ms
Writing library                  : LAME3.98r
Encoding settings                : -m j -V 4 -q 2 -lowpass 15.1 --abr 96


SCREENSHOTS
 
http://img705.imageshack.us/img705/5586/vlcsnap96232.png 
http://img10.imageshack.us/img10/8721/vlcsnap98294.png 
http://img191.imageshack.us/img191/3807/vlcsnap98103.png 
http://img19.imageshack.us/img19/4046/vlcsnap98016.png 
http://img191.imageshack.us/img191/6716/vlcsnap97949.png 
http://img705.imageshack.us/img705/5897/vlcsnap97795.png 
http://img191.imageshack.us/img191/6489/vlcsnap97704.png 
http://img32.imageshack.us/img32/3779/vlcsnap97253.png 
http://img705.imageshack.us/img705/9456/vlcsnap96770.png 
http://img705.imageshack.us/img705/896/vlcsnap96581.png

CREDITS MASTERMIND@ICTV FOR SOURCE

NOTE:NEW SOURCE RIP A/V =8/7.5   OVERALL A GOOD DEAL

OUR QUALITY NO FAKE STUFF 

JOIN OUR COMMUNITY NOW